<svg width="100" height="100" xmlns="http://www.w3.org/2000/svg">
 <g>
  <title>Layer 1</title>
  <rect rx="30" id="svg_1" height="100" width="100" stroke="#ffffff" fill="#e9e9e9" x="-1" y="-1"/>
  <path id="svg_2" d="m13,36.66219l0,28.5319l13.82139,0l20.69057,19.96801l0.0123,-68.46792l-20.69364,19.96801l-13.8306,0l-0.00002,0zm42.45735,-3.28103c-1.2084,-1.40563 -3.14863,-1.40563 -4.35089,0.00722c-1.19919,1.41286 -1.19919,3.70019 0.00614,5.11667l0,-0.00722c2.65359,3.12203 4.2894,7.40398 4.2894,12.16291c0,4.75532 -1.63274,9.02282 -4.28324,12.14485c-1.21149,1.40563 -1.21149,3.69296 -0.00614,5.11304c0.5996,0.70463 1.38675,1.05874 2.17392,1.05874c0.79024,0 1.57739,-0.35411 2.17699,-1.05874c3.75745,-4.40843 6.08818,-10.53325 6.08509,-17.25791c0.00307,-6.73911 -2.33687,-12.87116 -6.09126,-17.27959l-0.00002,0.00002l0.00001,0.00001zm7.05675,-8.28929c-1.2084,-1.41286 -3.14863,-1.41286 -4.34475,0c-1.20533,1.41286 -1.20533,3.7038 0,5.10943c4.45851,5.24313 7.20742,12.45561 7.20742,20.45582c0,7.99298 -2.74891,15.20183 -7.20126,20.44859c-1.20533,1.40924 -1.20533,3.69657 0,5.10943c0.5996,0.70463 1.38675,1.05874 2.17699,1.05874c0.78715,0 1.57432,-0.35411 2.17392,-1.05874c5.55931,-6.53675 9.00619,-15.59209 9.00005,-25.55802c0.00307,-9.97316 -3.44381,-19.03574 -9.01235,-25.56525l-0.00002,0zm6.70006,-7.87373c-1.2084,-1.41286 -3.1517,-1.40563 -4.34782,0.00722c-1.20226,1.40563 -1.20226,3.69657 0.00614,5.10582l-0.00614,0c6.17735,7.25945 9.98706,17.24705 9.98706,28.32594c0,11.06804 -3.80973,21.05926 -9.98092,28.32232c-1.20226,1.40924 -1.20226,3.69657 0.00614,5.11304c0.59652,0.70102 1.38368,1.05152 2.17083,1.05152s1.57739,-0.35411 2.17699,-1.05874c7.26584,-8.54946 11.7797,-20.39078 11.77354,-33.42816c0.00614,-13.04822 -4.5077,-24.89315 -11.78584,-33.439l0.00002,0.00004z" stroke="#555555" fill="#555555"/>
  <path fill="#ffffff" stroke="#ffffff" d="m114.55384,12.9486c-0.89005,0 -1.61126,0.0601 -1.61126,0.13427c0,0.07414 0.72121,0.13427 1.61126,0.13427c0.20394,0 0.39714,-0.00351 0.57672,-0.00929l0.34512,0.04421l0.56103,-0.03045l-0.34306,-0.0439c0.29104,-0.02429 0.47145,-0.05783 0.47145,-0.09485c0,-0.07417 -0.72121,-0.13427 -1.61126,-0.13427l0,0.00001zm-0.00619,-0.36342c-3.31375,0 -6,0.22385 -6,0.5c0,0.27615 2.68625,0.5 6,0.5c3.31375,0 6,-0.22385 6,-0.5c0,-0.27615 -2.68625,-0.5 -6,-0.5zm4.20008,0.66544c-0.09949,0.01734 -0.21178,0.03406 -0.34099,0.04988l-1.3037,-0.02336c-0.19857,0.0181 -0.4248,0.0342 -0.67456,0.04765l0.04913,0.11016c-0.2093,0.00791 -0.42438,0.01448 -0.64772,0.01961l-0.80707,-0.08649c-0.15357,0.00175 -0.30962,0.00296 -0.46897,0.00296c-0.14697,0 -0.29145,-0.001 -0.43388,-0.00255l-0.80294,0.08601c-0.22334,-0.00519 -0.43966,-0.01177 -0.64814,-0.01957l0.0483,-0.10823c-0.26173,-0.01369 -0.49869,-0.03027 -0.70676,-0.04909l-1.26902,0.02264c-0.12921,-0.01569 -0.24068,-0.03248 -0.34099,-0.04981l0.86198,-0.07943c-0.0933,-0.02418 -0.14614,-0.04992 -0.15894,-0.07648l-1.1427,-0.05036c0.02271,-0.01937 0.06812,-0.03808 0.12426,-0.05652l1.27315,-0.01469c0.11972,-0.02415 0.27866,-0.04651 0.46856,-0.06681l-0.48796,-0.0998c0.16472,-0.01338 0.34264,-0.0256 0.52965,-0.03681l1.09935,0.05752c0.26834,-0.01159 0.5569,-0.0204 0.86074,-0.0258l0.39961,-0.10324c0.11477,-0.00072 0.22912,-0.00144 0.34553,-0.00144c0.11642,0 0.23118,0.00076 0.34553,0.00144l0.40292,0.10417c0.29723,0.00561 0.57837,0.01431 0.84051,0.0258l1.11628,-0.05838c0.18784,0.01122 0.36618,0.02343 0.53048,0.03681l-0.502,0.10272c0.17669,0.0194 0.32737,0.04063 0.4409,0.06347l1.31485,0.01517c0.05573,0.01841 0.10197,0.03719 0.12467,0.05652l-1.18357,0.05215c-0.01404,0.02498 -0.06192,0.04919 -0.14655,0.07224l0.89005,0.08195l0.00001,-0.00001z" id="svg_7"/>
 </g>

</svg>